# xmcd
#
# Track frame offsets: 
#        150
#        3678
#        20473
#        45422
#        66127
#        96980
#        118251
#        134181
#        150415
#        166557
#        189485
#        210449
#        232898
#        248328
#        268820
#        295108
#        314527
#
# Disc length: 4414 seconds
#
# Revision: 3
# Processed by: cddbd v1.5.1PL2 Copyright (c) Steve Scherf et al.
# Submitted via: ExactAudioCopy v0.90b3
#
DISCID=e5113c11
DTITLE=Dr. John - The Best Of The Parlophone Years
DYEAR=2005
DGENRE=R&B
TTITLE0=Zonata
TTITLE1=I Like Ki Yoka
TTITLE2=It Don't Mean A Thing
TTITLE3=Voices In My Head
TTITLE4=Marie Laveau
TTITLE5=Party Hellfire
TTITLE6=Now That You Got Me
TTITLE7=Hen Layin' Rooster
TTITLE8=I Ate Up The Apple Tree
TTITLE9=I'm Gonna Go Fishin'
TTITLE10=Hello God
TTITLE11=Food For Thot
TTITLE12=I Don't Wanna Know
TTITLE13=Lay My Burden Down
TTITLE14=Sweet Home New Orleans
TTITLE15=Careless Love
TTITLE16=Look Out
EXTD=YEAR: 2005
EXTT0=
EXTT1=
EXTT2=
EXTT3=
EXTT4=
EXTT5=
EXTT6=
EXTT7=
EXTT8=
EXTT9=
EXTT10=
EXTT11=
EXTT12=
EXTT13=
EXTT14=
EXTT15=
EXTT16=
PLAYORDER=
